<?xml version="1.0" encoding="UTF-8" standalone="no"?>
<!DOCTYPE svg PUBLIC "-//W3C//DTD SVG 1.1//EN" "http://www.w3.org/Graphics/SVG/1.1/DTD/svg11.dtd">
<svg width="100%" height="100%" viewBox="0 0 192 192" version="1.1" xmlns="http://www.w3.org/2000/svg" xmlns:xlink="http://www.w3.org/1999/xlink" xml:space="preserve" xmlns:serif="http://www.serif.com/" style="fill-rule:evenodd;clip-rule:evenodd;stroke-linejoin:round;stroke-miterlimit:2;">
    <g transform="matrix(1,0,0,1,-1521,-18)">
        <g id="x_icon" transform="matrix(1,0,0,1,-0.838321,-0.67484)">
            <rect x="1521.84" y="18.675" width="191.338" height="191.338" style="fill:none;"/>
            <g transform="matrix(0.455376,0,0,0.455376,880.933,62.2743)">
                <g transform="matrix(1.25212,1.25212,-1.25212,1.25212,-192.475,-1972.17)">
                    <path d="M1567.09,60.427C1567.09,57.476 1565.92,54.646 1563.83,52.559C1561.74,50.473 1558.91,49.3 1555.96,49.3L1555.96,49.3C1553.01,49.3 1550.18,50.473 1548.09,52.559C1546.01,54.646 1544.83,57.476 1544.83,60.427C1544.83,83.676 1544.83,137.173 1544.83,160.422C1544.83,163.373 1546.01,166.203 1548.09,168.29C1550.18,170.377 1553.01,171.549 1555.96,171.549C1555.96,171.549 1555.96,171.549 1555.96,171.549C1558.91,171.549 1561.74,170.377 1563.83,168.29C1565.92,166.203 1567.09,163.373 1567.09,160.422C1567.09,137.173 1567.09,83.676 1567.09,60.427Z" style="fill:rgb(98,98,98);"/>
                </g>
                <g transform="matrix(1.25212,-1.25212,1.25212,1.25212,-469.005,1924.33)">
                    <path d="M1567.09,60.427C1567.09,57.476 1565.92,54.646 1563.83,52.559C1561.74,50.473 1558.91,49.3 1555.96,49.3C1555.96,49.3 1555.96,49.3 1555.96,49.3C1553.01,49.3 1550.18,50.473 1548.09,52.559C1546.01,54.646 1544.83,57.476 1544.83,60.427C1544.83,83.676 1544.83,137.173 1544.83,160.422C1544.83,163.373 1546.01,166.203 1548.09,168.29C1550.18,170.377 1553.01,171.549 1555.96,171.549C1555.96,171.549 1555.96,171.549 1555.96,171.549C1558.91,171.549 1561.74,170.377 1563.83,168.29C1565.92,166.203 1567.09,163.373 1567.09,160.422C1567.09,137.173 1567.09,83.676 1567.09,60.427Z" style="fill:rgb(98,98,98);"/>
                </g>
            </g>
        </g>
    </g>
</svg>
